<svg width="100" height="100" viewBox="0 0 100 100" fill="none" xmlns="http://www.w3.org/2000/svg">
<rect width="100" height="100" rx="50" fill="black"/>
<g clip-path="url(#clip0)">
<path d="M47.3416 15.1241C47.2282 13.5003 48.2721 12.1803 49.7004 12.0139C51.0318 11.8575 52.4425 13.083 52.5333 14.5706C52.5686 15.1694 52.8157 15.4796 53.3011 15.7544C55.9906 17.2765 58.6675 18.8121 61.3318 20.3611C61.4887 20.4637 61.6673 20.5284 61.8534 20.5503C62.0396 20.5722 62.2283 20.5506 62.4047 20.4871C64.1331 19.9488 65.5287 20.7834 65.888 22.5472C65.9089 22.6968 65.9648 22.8394 66.0511 22.9633C66.1374 23.0873 66.2517 23.1892 66.3848 23.2607C70.1232 25.4056 73.8587 27.5556 77.5913 29.7105C77.9291 29.9047 78.151 29.8921 78.4637 29.6286C79.6387 28.6402 81.183 28.7537 82.1525 29.858C83.122 30.9624 83.0287 32.5383 81.8853 33.5456C81.6905 33.7037 81.5369 33.9065 81.4374 34.1368C81.338 34.3671 81.2957 34.618 81.3142 34.8681C81.3394 36.4755 81.3306 38.083 81.3142 39.6904C81.3029 39.8913 81.3403 40.0919 81.4233 40.2752C81.5063 40.4585 81.6323 40.619 81.7907 40.7431C83.1838 41.9408 83.1687 43.7423 81.7668 44.9034C81.617 45.0194 81.4978 45.1702 81.4193 45.3426C81.3409 45.515 81.3057 45.704 81.3167 45.8931C81.3167 51.9134 81.3167 57.9338 81.3167 63.9541C81.3167 64.4029 81.4869 64.7017 81.8323 64.9904C82.8888 65.8729 83.146 67.4917 82.44 68.5204C81.71 69.5832 80.1556 69.9866 78.9604 69.3311C78.4561 69.0524 78.0943 69.118 77.6367 69.3815C71.4734 72.9367 65.3043 76.4827 59.1293 80.0194C58.9627 80.1079 58.8203 80.2359 58.7146 80.3922C58.6089 80.5484 58.5431 80.7282 58.5229 80.9158C58.2456 82.4627 56.7768 83.4372 55.2753 82.9329C54.1407 82.5547 53.5103 83.3111 52.7325 83.76C52.4955 83.8986 52.5774 84.2252 52.5522 84.4748C52.3984 86.0242 51.1137 87.0971 49.5479 86.9874C48.359 86.9054 47.2219 85.4997 47.3479 84.1218C47.4122 83.4196 47.1828 83.0956 46.5915 82.7589C38.6414 78.2204 30.704 73.6562 22.7791 69.0663C22.1664 68.7121 21.7705 68.6604 21.178 69.142C20.2791 69.8732 19.2365 69.8265 18.2418 69.2428C17.7866 68.9768 17.4266 68.5743 17.2128 68.0924C16.9989 67.6105 16.9422 67.0735 17.0504 66.5575C17.2622 65.5035 17.9191 64.7597 18.9869 64.5126C19.5013 64.3941 19.6336 64.1546 19.6336 63.6742C19.6244 54.5416 19.6244 45.409 19.6336 36.2764C19.6336 35.7494 19.4281 35.5199 18.9251 35.3737C17.8875 35.0711 17.2181 34.3651 17.034 33.2796C16.8235 32.0366 17.4475 31.1125 18.4208 30.5061C19.1003 30.0837 19.9715 30.1367 20.704 30.5061C21.2385 30.7746 21.6293 30.6952 22.1135 30.4153C28.6692 26.6273 35.2341 22.8485 41.8084 19.0789C43.4221 18.151 45.0295 17.2118 46.6558 16.3053C47.2017 16.0078 47.6745 15.7305 47.3416 15.1241ZM63.4208 55.3409C63.47 55.1392 63.2468 54.8921 63.0123 54.6488C59.6614 51.1692 56.594 47.469 54.1583 43.2746C53.8192 42.6909 52.6783 42.6442 52.2521 43.1725C51.7882 43.7461 51.3696 44.355 50.907 44.9375C48.2935 48.2368 45.5464 51.415 42.3996 54.2239C41.9987 54.582 41.8134 54.911 42.0416 55.4846C42.1713 55.7905 42.2248 56.1233 42.1976 56.4545C42.1703 56.7856 42.0632 57.1052 41.8853 57.3858C41.4907 57.9771 41.676 58.4107 42.0025 58.9125C45.8872 64.9001 49.7622 70.8935 53.6276 76.8928C54.1571 77.7199 54.5895 78.3654 55.7456 77.851C56.178 77.6581 56.4806 77.5522 56.6104 77.0643C56.947 75.8099 57.3051 74.5593 57.6972 73.32C59.2932 68.2771 61.3154 63.4107 64.0461 58.8608C64.2138 58.5835 64.35 58.3301 64.0587 58.0439C63.3401 57.3379 63.1636 56.4781 63.4208 55.3359V55.3409ZM21.5915 34.7383C21.5058 34.795 21.381 34.877 21.2587 34.9627C20.7809 35.298 20.8565 35.8048 20.8565 36.2839C20.8565 45.1837 20.8536 54.0827 20.8477 62.9808C20.8477 63.9239 20.7216 64.8719 21.7302 65.4455C21.8497 65.544 21.9374 65.6756 21.9823 65.8238C22.1601 66.2423 22.4249 66.2083 22.7842 66.0507C27.7418 63.8783 32.4169 61.1108 36.7062 57.8094C37.0391 57.5572 37.145 57.3278 37.0151 56.9118C36.8953 56.5579 36.8658 56.1798 36.9292 55.8117C36.9926 55.4436 37.1469 55.0972 37.3782 54.8038C37.7968 54.2731 37.6871 53.8873 37.3618 53.3817C33.0212 46.6369 27.8434 40.5905 22.0845 35.027C21.9622 34.906 21.8474 34.7597 21.5915 34.7383ZM48.4927 17.3921C48.5242 16.9155 48.3351 16.7252 47.8686 16.9924C47.6694 17.1059 47.4639 17.2093 47.266 17.3227C39.1092 22.0109 30.954 26.7008 22.8005 31.3923C22.4816 31.5751 22.1084 31.7 22.2093 32.2383C22.3038 32.7363 22.6379 32.8157 23.0186 32.8989L50.3598 38.8986C50.6838 38.9692 50.9902 39.0688 51.2511 38.7146C51.5121 38.3603 51.6293 38.054 51.4352 37.6014C49.2661 32.4641 48.1897 26.9316 48.2746 21.3558C48.2935 20.0345 48.417 18.7133 48.4927 17.3921ZM80.0925 37.2269V35.0093C80.0925 34.9829 80.0925 34.9576 80.0925 34.9324C80.0799 34.732 80.1177 34.5177 79.9791 34.3449C79.7269 34.031 77.88 33.5318 77.4728 33.6553L56.9092 39.8707C56.6193 39.9576 56.1957 39.9753 56.1276 40.2779C55.946 41.0872 55.4481 41.734 55.148 42.4766C55.1077 42.5736 55.2463 42.7552 55.3232 42.8863C57.6745 46.855 60.5514 50.4128 63.77 53.7057C64.055 53.997 64.3311 54.084 64.7194 53.8936C65.0366 53.7261 65.3853 53.627 65.7432 53.6027C66.1011 53.5784 66.4601 53.6294 66.797 53.7524C67.2042 53.8986 67.4526 53.7915 67.706 53.4561C70.3909 49.8876 73.5842 46.7318 77.1841 44.089C77.5018 43.857 77.6467 43.6099 77.6127 43.1939C77.4866 41.681 78.0628 40.7985 79.5239 40.2943C79.9324 40.1518 80.1014 39.9362 80.095 39.5202C80.0824 38.7562 80.09 37.9909 80.0925 37.2269ZM48.4032 81.6722C48.3805 81.5461 48.3515 81.3949 48.3288 81.2436C47.6064 76.5071 46.2726 71.9344 44.5706 67.4665C43.5088 64.7303 42.288 62.0585 40.9145 59.4647C40.6687 58.9945 40.3875 58.6944 39.7799 58.8167C39.5541 58.8697 39.3199 58.8769 39.0913 58.8379C38.8626 58.7989 38.6441 58.7145 38.4486 58.5898C37.8989 58.2115 37.4992 58.3868 37.0214 58.7537C32.7278 62.046 28.0498 64.804 23.0905 66.9672C22.8548 67.0706 22.4438 67.0479 22.4538 67.4009C22.4602 67.6531 22.8132 67.7249 23.03 67.8485C28.0729 70.7498 33.1157 73.6494 38.1586 76.5474C41.3205 78.3654 44.4832 80.182 47.6467 81.9975C48.0136 82.2143 48.4221 82.4892 48.4032 81.6722ZM23.2431 34.1886L23.1699 34.3828C23.3603 34.5819 23.5481 34.7862 23.7398 34.9816C25.0661 36.3205 26.4011 37.6493 27.6795 39.0373C31.5234 43.1977 35.0446 47.619 38.1094 52.3896C38.5784 53.1183 39.0007 53.8142 40.0345 53.6503C40.1891 53.643 40.3417 53.6874 40.4682 53.7764C40.9347 54.0714 41.2713 53.9529 41.6747 53.5872C45.1253 50.4632 48.1359 46.9483 50.9813 43.2771C51.4541 42.6669 51.7302 42.1626 51.1074 41.5121C50.9668 41.3299 50.8814 41.1111 50.8616 40.8817C50.7821 40.3434 50.4682 40.1253 49.9564 40.0131C41.4423 38.1573 32.9308 36.2932 24.4218 34.4206C24.0272 34.3311 23.6339 34.2617 23.2431 34.1886ZM77.5194 67.0567C77.9518 66.1742 77.2496 65.8881 76.6621 65.5086C73.6409 63.5563 70.7363 61.4292 67.9632 59.1382C67.7347 58.9508 67.4681 58.8155 67.1819 58.7417C66.8958 58.6678 66.597 58.6573 66.3064 58.7107C66.0157 58.7641 65.7402 58.8802 65.499 59.0509C65.2578 59.2216 65.0567 59.4428 64.9097 59.6992C62.3404 64.1306 60.3485 68.8142 58.8154 73.6931C58.4095 74.9816 58.0829 76.2953 57.6883 77.5875C57.5181 78.1435 57.7363 78.5217 58.1157 78.8709C58.5154 79.2378 58.7789 78.8293 59.0512 78.673C64.9841 75.2825 70.9128 71.8849 76.8374 68.4801C77.3959 68.1611 77.8396 67.8333 77.5194 67.0567ZM49.4886 21.9786C49.4382 26.9344 50.4203 31.6962 52.1727 36.3154C52.4564 37.0618 52.6505 37.8699 53.7499 37.6253C53.8783 37.6161 54.0068 37.6431 54.1205 37.7035C54.5517 37.8812 54.829 37.7375 55.0711 37.3505C57.4477 33.575 59.5769 29.6493 61.4453 25.5981C61.6142 25.23 61.6104 24.9677 61.3343 24.6387C60.7292 23.9112 60.4884 23.0628 60.83 22.1399C61.0179 21.6294 60.7884 21.4075 60.3838 21.178C57.7909 19.7055 55.206 18.2195 52.6291 16.7201C52.1866 16.468 51.8601 16.4327 51.4818 16.8096C51.1668 17.1162 50.753 17.3008 50.3144 17.3303C49.8265 17.3707 49.7004 17.6392 49.6513 18.0867C49.5209 19.3797 49.4666 20.6792 49.4886 21.9786ZM80.0938 54.9904C80.0938 52.1349 80.0257 49.2769 80.1266 46.4251C80.1669 45.2829 79.2567 45.4279 78.7398 45.0207C78.2998 44.6727 77.9833 44.9766 77.6543 45.2174C74.1747 47.8056 71.1742 50.8754 68.5318 54.3059C68.2973 54.6122 68.2002 54.8971 68.3616 55.2867C68.4882 55.5814 68.5535 55.8988 68.5535 56.2196C68.5535 56.5404 68.4882 56.8578 68.3616 57.1525C68.151 57.6392 68.3502 57.909 68.6894 58.1977C71.5961 60.6046 74.6495 62.8286 77.8321 64.8568C78.1472 65.0598 78.4246 65.0963 78.741 64.8568C78.9193 64.7109 79.1312 64.6121 79.3575 64.5693C79.9879 64.4887 80.1026 64.1256 80.0976 63.5608C80.0812 60.6964 80.0938 57.8409 80.0938 54.9904ZM63.1523 25.5792C62.614 25.3762 62.4274 25.738 62.2471 26.1339C60.3755 30.2146 58.2273 34.1627 55.8174 37.9506C55.6649 38.1914 55.3737 38.4624 55.6523 38.7688C55.883 39.0209 56.1805 38.8406 56.4402 38.7625C63.2481 36.705 70.056 34.6437 76.8638 32.5787C77.1601 32.4892 77.5938 32.4992 77.5888 32.0403C77.5837 31.5814 77.6568 31.1062 77.1021 30.791C73.4418 28.7167 69.7933 26.6235 66.1566 24.5113C65.8111 24.3122 65.5956 24.3046 65.3195 24.6374C64.7723 25.3106 64.0134 25.5767 63.1523 25.5792ZM45.8805 67.1084C47.4652 71.7479 48.799 76.3923 49.5366 81.1982C49.5908 81.5575 49.7887 81.739 50.1505 81.7466C50.7425 81.767 51.3067 82.0023 51.7378 82.4085C52.3429 82.9367 52.6896 82.232 53.1485 82.0819C53.5204 81.9559 53.6301 81.6823 53.5002 81.289C53.3389 80.7998 53.2405 80.2804 53.4511 79.7912C53.683 79.2479 53.499 78.8306 53.1989 78.3767C51.7163 76.1175 50.2615 73.8381 48.7864 71.5688C47.8232 70.0804 46.8546 68.5935 45.8805 67.1084Z" fill="white"/>
</g>
<defs>
<clipPath id="clip0">
<rect width="65.8384" height="75" fill="white" transform="translate(17 12)"/>
</clipPath>
</defs>
</svg>
