<svg id="Layer_1" data-name="Layer 1" xmlns="http://www.w3.org/2000/svg" viewBox="0 0 522.23 594.9">
  <defs>
    <style>
      .cls-1 {
        fill: #1d1d1b;
      }
    </style>
  </defs>
  <g id="FX85L1">
    <path class="cls-1" d="M400.36,24.78c-.9-12.88,7.38-23.35,18.71-24.67,10.56-1.24,21.75,8.48,22.47,20.28.28,4.75,2.24,7.21,6.09,9.39q32,18.11,63.7,36.54a9.61,9.61,0,0,0,8.51,1c13.71-4.27,24.78,2.35,27.63,16.34a7.62,7.62,0,0,0,3.94,5.66q44.48,25.52,88.89,51.16c2.68,1.54,4.44,1.44,6.92-.65,9.32-7.84,21.57-6.94,29.26,1.82s6.95,21.26-2.12,29.25a12.34,12.34,0,0,0-4.53,10.49c.2,12.75.13,25.5,0,38.25a9.9,9.9,0,0,0,3.78,8.35c11.05,9.5,10.93,23.79-.19,33a9.25,9.25,0,0,0-3.57,7.85q0,71.63,0,143.26c0,3.56,1.35,5.93,4.09,8.22,8.38,7,10.42,19.84,4.82,28-5.79,8.43-18.12,11.63-27.6,6.43-4-2.21-6.87-1.69-10.5.4q-73.33,42.3-146.8,84.38a9.16,9.16,0,0,0-4.81,7.11c-2.2,12.27-13.85,20-25.76,16-9-3-14,3-20.17,6.56-1.88,1.1-1.23,3.69-1.43,5.67-1.22,12.29-11.41,20.8-23.83,19.93-9.43-.65-18.45-11.8-17.45-22.73.51-5.57-1.31-8.14-6-10.81q-94.59-54-188.88-108.61c-4.86-2.81-8-3.22-12.7.6-7.13,5.8-15.4,5.43-23.29.8a19.93,19.93,0,0,1-9.45-21.3c1.68-8.36,6.89-14.26,15.36-16.22,4.08-.94,5.13-2.84,5.13-6.65q-.11-108.66,0-217.32c0-4.18-1.63-6-5.62-7.16-8.23-2.4-13.54-8-15-16.61-1.67-9.86,3.28-17.19,11-22,5.39-3.35,12.3-2.93,18.11,0,4.24,2.13,7.34,1.5,11.18-.72q78-45.07,156.22-89.92c12.8-7.36,25.55-14.81,38.45-22C399.25,31.79,403,29.59,400.36,24.78Zm127.54,319c.39-1.6-1.38-3.56-3.24-5.49-26.58-27.6-50.91-56.95-70.23-90.22-2.69-4.63-11.74-5-15.12-.81-3.68,4.55-7,9.38-10.67,14-20.73,26.17-42.52,51.38-67.48,73.66-3.18,2.84-4.65,5.45-2.84,10A16.29,16.29,0,0,1,357.08,360c-3.13,4.69-1.66,8.13.93,12.11q46.22,71.24,92.21,142.62c4.2,6.56,7.63,11.68,16.8,7.6,3.43-1.53,5.83-2.37,6.86-6.24,2.67-9.95,5.51-19.87,8.62-29.7,12.66-40,28.7-78.6,50.36-114.69,1.33-2.2,2.41-4.21.1-6.48C527.26,359.62,525.86,352.8,527.9,343.74ZM196.11,180.36c-.68.45-1.67,1.1-2.64,1.78-3.79,2.66-3.19,6.68-3.19,10.48q0,105.89-.07,211.76c0,7.48-1,15,7,19.55a6.23,6.23,0,0,1,2,3c1.41,3.32,3.51,3.05,6.36,1.8A529.43,529.43,0,0,0,316,363.36c2.64-2,3.48-3.82,2.45-7.12a17.79,17.79,0,0,1,2.88-16.72c3.32-4.21,2.45-7.27-.13-11.28-34.43-53.5-75.5-101.46-121.18-145.59C199.05,181.69,198.14,180.53,196.11,180.36ZM409.49,42.77c.25-3.78-1.25-5.29-4.95-3.17-1.58.9-3.21,1.72-4.78,2.62Q302.71,98,205.7,153.82c-2.53,1.45-5.49,2.44-4.69,6.71.75,3.95,3.4,4.58,6.42,5.24L424.3,213.36c2.57.56,5,1.35,7.07-1.46s3-5.24,1.46-8.83A318.81,318.81,0,0,1,407.76,74.21C407.91,63.73,408.89,53.25,409.49,42.77ZM660.14,200.1V182.51c0-.21,0-.41,0-.61-.1-1.59.2-3.29-.9-4.66-2-2.49-16.65-6.45-19.88-5.47l-163.11,49.3c-2.3.69-5.66.83-6.2,3.23-1.44,6.42-5.39,11.55-7.77,17.44-.32.77.78,2.21,1.39,3.25,18.65,31.48,41.47,59.7,67,85.82,2.26,2.31,4.45,3,7.53,1.49a20.35,20.35,0,0,1,16.48-1.12c3.23,1.16,5.2.31,7.21-2.35a362.67,362.67,0,0,1,75.18-74.3c2.52-1.84,3.67-3.8,3.4-7.1-1-12,3.57-19,15.16-23,3.24-1.13,4.58-2.84,4.53-6.14C660.06,212.23,660.12,206.16,660.14,200.1ZM408.78,552.64c-.18-1-.41-2.2-.59-3.4-5.73-37.57-16.31-73.84-29.81-109.28a597.63,597.63,0,0,0-29-63.47c-1.95-3.73-4.18-6.11-9-5.14a13.78,13.78,0,0,1-10.56-1.8c-4.36-3-7.53-1.61-11.32,1.3A529.5,529.5,0,0,1,208,436c-1.87.82-5.13.64-5.05,3.44.05,2,2.85,2.57,4.57,3.55q60,34.52,120,69,37.62,21.63,75.26,43.23C405.69,556.94,408.93,559.12,408.78,552.64ZM209.21,176l-.58,1.54c1.51,1.58,3,3.2,4.52,4.75,10.52,10.62,21.11,21.16,31.25,32.17,30.49,33,58.42,68.07,82.73,105.91,3.72,5.78,7.07,11.3,15.27,10a5.53,5.53,0,0,1,3.44,1c3.7,2.34,6.37,1.4,9.57-1.5,27.37-24.78,51.25-52.66,73.82-81.78,3.75-4.84,5.94-8.84,1-14a9.53,9.53,0,0,1-1.95-5c-.63-4.27-3.12-6-7.18-6.89q-101.3-22.08-202.54-44.36C215.43,177.13,212.31,176.58,209.21,176ZM639.73,436.71c3.43-7-2.14-9.27-6.8-12.28a732.74,732.74,0,0,1-69-50.53,16.13,16.13,0,0,0-24.22,4.45c-20.38,35.15-36.18,72.3-48.34,111-3.22,10.22-5.81,20.64-8.94,30.89-1.35,4.41.38,7.41,3.39,10.18,3.17,2.91,5.26-.33,7.42-1.57Q563.83,488.51,634.32,448C638.75,445.47,642.27,442.87,639.73,436.71ZM417.39,79.15c-.4,39.31,7.39,77.08,21.29,113.72,2.25,5.92,3.79,12.33,12.51,10.39a5.44,5.44,0,0,1,2.94.62c3.42,1.41,5.62.27,7.54-2.8a818.19,818.19,0,0,0,50.56-93.22c1.34-2.92,1.31-5-.88-7.61-4.8-5.77-6.71-12.5-4-19.82,1.49-4.05-.33-5.81-3.54-7.63q-30.85-17.52-61.51-35.36c-3.51-2-6.1-2.28-9.1.71a14.69,14.69,0,0,1-9.26,4.13c-3.87.32-4.87,2.45-5.26,6A263.14,263.14,0,0,0,417.39,79.15ZM660.15,341c0-22.65-.54-45.32.26-67.94.32-9.06-6.9-7.91-11-11.14-3.49-2.76-6-.35-8.61,1.56-27.6,20.53-51.4,44.88-72.36,72.09-1.86,2.43-2.63,4.69-1.35,7.78a18.75,18.75,0,0,1,0,14.8c-1.67,3.86-.09,6,2.6,8.29a722.62,722.62,0,0,0,72.52,52.82c2.5,1.61,4.7,1.9,7.21,0a10.92,10.92,0,0,1,4.89-2.28c5-.64,5.91-3.52,5.87-8C660.05,386.26,660.15,363.61,660.15,341ZM525.77,107.71c-4.27-1.61-5.75,1.26-7.18,4.4a781.66,781.66,0,0,1-51,93.73c-1.21,1.91-3.52,4.06-1.31,6.49,1.83,2,4.19.57,6.25-.05q81-24.48,162-49.05c2.35-.71,5.79-.63,5.75-4.27s.54-7.41-3.86-9.91q-43.55-24.68-86.82-49.81c-2.74-1.58-4.45-1.64-6.64,1C538.62,105.58,532.6,107.69,525.77,107.71Zm-137,329.41c12.57,36.8,23.15,73.64,29,111.76.43,2.85,2,4.29,4.87,4.35a19.33,19.33,0,0,1,12.59,5.25c4.8,4.19,7.55-1.4,11.19-2.59,2.95-1,3.82-3.17,2.79-6.29-1.28-3.88-2.06-8-.39-11.88,1.84-4.31.38-7.62-2-11.22-11.76-17.92-23.3-36-35-54Q400.36,454.79,388.77,437.12Z" transform="translate(-159.69 0)"/>
  </g>
</svg>
